:SAMPLES-PER-SECOND 30
:FRAME-RANGE 1-1700
:FULLY-SPECIFIED
:DEGREES
851
root  -88.0039 35.1109 -17.136 -8.04724 33.3317 6.08081
RightUpLeg  -6.18787 -6.53676 -2.44743
RightLeg  53.1859 2.46954 3.15456
RightFoot  -36.4277 -0.77196 -2.35099
RightToes  6.35937e-011 1.2921e-014 -6.02303e-014
Spine  19.5994 3.47644 2.16614
Spine1  -0.216992 2.66401 0.591188
HEad  -10.4627 24.2312 -20.5135
LeftShoulder1  2.17446 -8.8662 -10.8841
LeftArm  24.4541 -44.3272 -96.7425
LeftForeArm  78.2588 5.58239 -13.8896
LeftHand  -0.126345 13.7991 -0.670483
RightShoulder  3.77106 10.8962 20.2982
RightArm  -14.8199 38.0156 69.8359
RightForeArm  93.591 -4.02481 1.96449
RightHand  0.583538 -8.67285 -20.9522
LeftUpLeg  -96.0117 8.19183 -47.173
LeftLeg  100.124 -3.14857 13.1343
LeftFoot  -28.7414 -0.32434 -3.24917
LeftToes  -1.9349e-011 5.45182e-011 1.33515e-010
852
root  -88.03 35.1034 -16.8664 -8.45129 37.4269 4.92474
RightUpLeg  -5.0911 -11.2429 -2.35615
RightLeg  52.5741 2.85796 3.62658
RightFoot  -36.6566 -0.850199 -2.67
RightToes  6.35937e-011 1.2921e-014 -6.02303e-014
Spine  20.0158 3.62477 4.14903
Spine1  -1.29556 3.16557 -0.369507
HEad  -11.301 22.017 -18.0576
LeftShoulder1  2.29339 -8.99576 -11.7482
LeftArm  24.3002 -42.2933 -96.1836
LeftForeArm  82.9084 5.33115 -13.888
LeftHand  -0.221861 14.0968 -1.84926
RightShoulder  3.6037 9.94414 20.9894
RightArm  -12.5854 34.5821 68.0178
RightForeArm  89.6229 -4.7613 5.29889
RightHand  0.470098 -7.92124 -21.8961
LeftUpLeg  -96.1093 8.4562 -45.8629
LeftLeg  105.65 -4.06768 11.7108
LeftFoot  -28.8379 -0.233885 -2.64735
LeftToes  -1.9349e-011 5.45182e-011 1.33515e-010
853
root  -87.964 35.8714 -16.4984 -6.89343 40.4996 5.60205
RightUpLeg  -3.24148 -13.3948 -3.13312
RightLeg  47.8968 2.96246 3.17512
RightFoot  -34.22 -0.62843 -1.95279
RightToes  6.35937e-011 1.2921e-014 -6.02303e-014
Spine  18.2558 3.74664 4.02349
Spine1  -1.00979 3.24564 -0.534825
HEad  -12.2859 21.3334 -17.2318
LeftShoulder1  2.283 -8.84796 -11.9052
LeftArm  29.5955 -41.013 -94.8471
LeftForeArm  81.2856 4.32235 -14.8802
LeftHand  -0.293838 14.5522 -2.60216
RightShoulder  3.56439 9.57913 21.4867
RightArm  -13.434 31.4842 69.4839
RightForeArm  88.3392 -4.7952 5.14918
RightHand  0.571234 -8.36795 -22.4815
LeftUpLeg  -96.7668 9.91576 -45.2825
LeftLeg  110.29 -4.53466 10.2161
LeftFoot  -29.3704 -0.150311 -2.06192
LeftToes  -1.9349e-011 5.45182e-011 1.33515e-010
854
root  -87.7609 36.9519 -16.216 -4.62476 43.7444 7.0517
RightUpLeg  -0.977861 -15.6212 -5.01528
RightLeg  42.086 4.01274 3.58485
RightFoot  -29.862 -0.249609 -0.286653
RightToes  6.35937e-011 1.2921e-014 -6.02303e-014
Spine  17.1484 3.25589 3.93628
Spine1  -2.3267 2.82869 -1.39173
HEad  -10.5945 21.0727 -17.2008
LeftShoulder1  2.22783 -8.77319 -11.5278
LeftArm  27.0564 -40.4146 -93.1325
LeftForeArm  81.3262 4.48033 -14.7642
LeftHand  -0.374464 14.0934 -3.80349
RightShoulder  3.64076 9.45609 22.4095
RightArm  -17.1541 29.6049 71.5896
RightForeArm  91.4422 -4.1762 2.27449
RightHand  0.581871 -8.44022 -22.3614
LeftUpLeg  -97.6576 10.4289 -45.5524
LeftLeg  112.897 -5.83577 11.731
LeftFoot  -29.438 -0.0543968 -1.45457
LeftToes  -1.9349e-011 5.45182e-011 1.33515e-010
855
root  -87.4872 38.2813 -16.0017 -2.03516 46.1771 9.28107
RightUpLeg  1.11511 -14.0336 -6.32659
RightLeg  35.9895 3.27819 2.29468
RightFoot  -23.343 0.172239 3.14335
RightToes  6.35937e-011 1.2921e-014 -6.02303e-014
Spine  16.0612 3.20056 3.65103
Spine1  -2.92918 2.74746 -1.85682
HEad  -8.79984 20.4751 -17.909
LeftShoulder1  2.1244 -8.4779 -11.067
LeftArm  26.5733 -40.4948 -92.0275
LeftForeArm  78.6666 4.56324 -14.8227
LeftHand  -0.36375 13.5837 -3.93206
RightShoulder  3.72422 9.43339 23.1597
RightArm  -17.6605 29.2728 72.2418
RightForeArm  91.6938 -4.09232 1.84458
RightHand  0.578982 -8.47509 -22.0296
LeftUpLeg  -99.0557 10.7981 -45.9998
LeftLeg  113.571 -6.50992 12.7257
LeftFoot  -29.7491 -0.0186336 -1.22069
LeftToes  -1.9349e-011 5.45182e-011 1.33515e-010
856
root  -87.2106 39.6329 -15.9959 0.87323 47.4396 11.8018
RightUpLeg  1.75545 -8.56275 -7.16977
RightLeg  31.3436 1.54377 0.769895
RightFoot  -15.4888 0.163752 7.41787
RightToes  6.35937e-011 1.2921e-014 -6.02303e-014
Spine  15.4573 3.24092 4.13198
Spine1  -3.33465 3.04217 -3.01493
HEad  -7.96506 20.1362 -18.7361
LeftShoulder1  2.01131 -7.82321 -11.1173
LeftArm  23.6911 -40.436 -90.8553
LeftForeArm  78.5571 5.1282 -14.3594
LeftHand  -0.341373 13.4401 -3.70346
RightShoulder  3.80097 9.62404 23.3325
RightArm  -17.4879 29.8066 72.7869
RightForeArm  91.8498 -4.06225 1.70881
RightHand  0.610927 -8.67226 -21.8447
LeftUpLeg  -100.73 10.8685 -46.3935
LeftLeg  112.177 -5.24528 10.8633
LeftFoot  -30.243 -0.102749 -1.71167
LeftToes  -1.9349e-011 5.45182e-011 1.33515e-010
